<?xml version="1.0" encoding="UTF-8" standalone="no"?>
<svg
   height="24"
   viewBox="0 -960 960 960"
   width="24"
   version="1.1"
   id="svg4"
   sodipodi:docname="gallery.svg"
   inkscape:version="1.1.1 (3bf5ae0d25, 2021-09-20)"
   xmlns:inkscape="http://www.inkscape.org/namespaces/inkscape"
   xmlns:sodipodi="http://sodipodi.sourceforge.net/DTD/sodipodi-0.dtd"
   xmlns="http://www.w3.org/2000/svg"
   xmlns:svg="http://www.w3.org/2000/svg">
  <defs
     id="defs8" />
  <sodipodi:namedview
     id="namedview6"
     pagecolor="#505050"
     bordercolor="#eeeeee"
     borderopacity="1"
     inkscape:pageshadow="0"
     inkscape:pageopacity="0"
     inkscape:pagecheckerboard="0"
     showgrid="false"
     inkscape:zoom="32.958333"
     inkscape:cx="11.984829"
     inkscape:cy="12.015171"
     inkscape:window-width="1920"
     inkscape:window-height="975"
     inkscape:window-x="0"
     inkscape:window-y="41"
     inkscape:window-maximized="1"
     inkscape:current-layer="svg4" />
  <path
     d="M120-200q-33 0-56.5-23.5T40-280v-400q0-33 23.5-56.5T120-760h400q33 0 56.5 23.5T600-680v400q0 33-23.5 56.5T520-200H120Zm600-320q-17 0-28.5-11.5T680-560v-160q0-17 11.5-28.5T720-760h160q17 0 28.5 11.5T920-720v160q0 17-11.5 28.5T880-520H720Zm40-80h80v-80h-80v80ZM120-280h400v-400H120v400Zm40-80h320L375-500l-75 100-55-73-85 113Zm560 160q-17 0-28.5-11.5T680-240v-160q0-17 11.5-28.5T720-440h160q17 0 28.5 11.5T920-400v160q0 17-11.5 28.5T880-200H720Zm40-80h80v-80h-80v80Zm-640 0v-400 400Zm640-320v-80 80Zm0 320v-80 80Z"
     id="path2"
     style="fill:#333333" />
</svg>
