<?xml version="1.0" encoding="UTF-8" standalone="no"?>
<svg
   viewBox="0 0 50 50"
   width="50px"
   height="50px"
   version="1.1"
   id="svg1925"
   sodipodi:docname="spotify.svg"
   inkscape:version="1.1.1 (3bf5ae0d25, 2021-09-20)"
   xmlns:inkscape="http://www.inkscape.org/namespaces/inkscape"
   xmlns:sodipodi="http://sodipodi.sourceforge.net/DTD/sodipodi-0.dtd"
   xmlns="http://www.w3.org/2000/svg"
   xmlns:svg="http://www.w3.org/2000/svg">
  <defs
     id="defs1929" />
  <sodipodi:namedview
     id="namedview1927"
     pagecolor="#505050"
     bordercolor="#eeeeee"
     borderopacity="1"
     inkscape:pageshadow="0"
     inkscape:pageopacity="0"
     inkscape:pagecheckerboard="0"
     showgrid="false"
     inkscape:zoom="15.82"
     inkscape:cx="5.8786346"
     inkscape:cy="24.968394"
     inkscape:window-width="1920"
     inkscape:window-height="975"
     inkscape:window-x="0"
     inkscape:window-y="41"
     inkscape:window-maximized="1"
     inkscape:current-layer="svg1925" />
  <path
     d="M 25.009,2.0452111 C 12.322,2.0452111 2,12.367211 2,25.054211 c 0,12.687 10.322,23.009 23.009,23.009 12.687,0 23.009,-10.321 23.009,-23.009 0,-12.688 -10.322,-23.0089999 -23.009,-23.0089999 z m 9.739,33.3509999 c -0.289,0.434 -0.765,0.668 -1.25,0.668 -0.286,0 -0.575,-0.081 -0.831,-0.252 -2.473,-1.649 -6.667,-2.749 -10.167,-2.748 -3.714,0.002 -6.498,0.914 -6.526,0.923 -0.784,0.266 -1.635,-0.162 -1.897,-0.948 -0.262,-0.786 0.163,-1.636 0.949,-1.897 0.132,-0.044 3.279,-1.075 7.474,-1.077 3.5,-0.002 8.368,0.942 11.832,3.251 0.69,0.46 0.876,1.391 0.416,2.08 z m 2.992,-6.14 c -0.325,0.522 -0.886,0.809 -1.459,0.809 -0.31,0 -0.624,-0.083 -0.906,-0.26 -4.484,-2.794 -9.092,-3.385 -13.062,-3.35 -4.482,0.04 -8.066,0.895 -8.127,0.913 -0.907,0.258 -1.861,-0.272 -2.12,-1.183 -0.259,-0.913 0.272,-1.862 1.184,-2.12 0.277,-0.079 3.854,-0.959 8.751,-1 4.465,-0.037 10.029,0.61 15.191,3.826 0.803,0.5 1.05,1.56 0.548,2.365 z m 2.985,-7.18 c -0.373,0.634 -1.041,0.987 -1.727,0.987 -0.344,0 -0.692,-0.089 -1.011,-0.275 -5.226,-3.068 -11.58,-3.719 -15.99,-3.725 -0.021,0 -0.042,0 -0.063,0 -5.333,0 -9.44,0.938 -9.481,0.948 -1.078,0.247 -2.151,-0.419 -2.401,-1.495 -0.25,-1.075 0.417,-2.149 1.492,-2.4 0.185,-0.043 4.573,-1.053 10.39,-1.053 0.023,0 0.046,0 0.069,0 4.905,0.007 12.011,0.753 18.01,4.275 0.952,0.56 1.271,1.786 0.712,2.738 z"
     id="path1923"
     style="fill:#666666" />
</svg>
