<?xml version="1.0" encoding="UTF-8" standalone="no"?>
<svg
   height="24"
   viewBox="0 -960 960 960"
   width="24"
   version="1.1"
   id="svg4"
   sodipodi:docname="slider.svg"
   inkscape:version="1.1.1 (3bf5ae0d25, 2021-09-20)"
   xmlns:inkscape="http://www.inkscape.org/namespaces/inkscape"
   xmlns:sodipodi="http://sodipodi.sourceforge.net/DTD/sodipodi-0.dtd"
   xmlns="http://www.w3.org/2000/svg"
   xmlns:svg="http://www.w3.org/2000/svg">
  <defs
     id="defs8" />
  <sodipodi:namedview
     id="namedview6"
     pagecolor="#505050"
     bordercolor="#eeeeee"
     borderopacity="1"
     inkscape:pageshadow="0"
     inkscape:pageopacity="0"
     inkscape:pagecheckerboard="0"
     showgrid="false"
     inkscape:zoom="32.958333"
     inkscape:cx="11.984829"
     inkscape:cy="12.015171"
     inkscape:window-width="1920"
     inkscape:window-height="975"
     inkscape:window-x="0"
     inkscape:window-y="41"
     inkscape:window-maximized="1"
     inkscape:current-layer="svg4" />
  <path
     d="m472-312 56-56-128-128v-184h-80v216l152 152Zm248 172v-88q74-35 117-103t43-149q0-81-43-149T720-732v-88q109 38 174.5 131.5T960-480q0 115-65.5 208.5T720-140Zm-360 20q-75 0-140.5-28.5t-114-77q-48.5-48.5-77-114T0-480q0-75 28.5-140.5t77-114q48.5-48.5 114-77T360-840q75 0 140.5 28.5t114 77q48.5 48.5 77 114T720-480q0 75-28.5 140.5t-77 114q-48.5 48.5-114 77T360-120Zm0-80q117 0 198.5-81.5T640-480q0-117-81.5-198.5T360-760q-117 0-198.5 81.5T80-480q0 117 81.5 198.5T360-200Zm0-280Z"
     id="path2"
     style="fill:#ffffff" />
</svg>
