<?xml version="1.0" encoding="UTF-8" standalone="no"?>
<!-- Uploaded to: SVG Repo, www.svgrepo.com, Generator: SVG Repo Mixer Tools -->

<svg
   height="800px"
   width="800px"
   version="1.1"
   id="Layer_1"
   viewBox="0 0 512 512"
   xml:space="preserve"
   sodipodi:docname="vimeo.svg"
   inkscape:version="1.1.1 (3bf5ae0d25, 2021-09-20)"
   xmlns:inkscape="http://www.inkscape.org/namespaces/inkscape"
   xmlns:sodipodi="http://sodipodi.sourceforge.net/DTD/sodipodi-0.dtd"
   xmlns="http://www.w3.org/2000/svg"
   xmlns:svg="http://www.w3.org/2000/svg"><defs
   id="defs13" /><sodipodi:namedview
   id="namedview11"
   pagecolor="#505050"
   bordercolor="#eeeeee"
   borderopacity="1"
   inkscape:pageshadow="0"
   inkscape:pageopacity="0"
   inkscape:pagecheckerboard="0"
   showgrid="false"
   inkscape:zoom="0.98875"
   inkscape:cx="399.49431"
   inkscape:cy="399.49431"
   inkscape:window-width="1920"
   inkscape:window-height="975"
   inkscape:window-x="0"
   inkscape:window-y="41"
   inkscape:window-maximized="1"
   inkscape:current-layer="Layer_1" />
<circle
   style="fill:#000000"
   cx="256"
   cy="256"
   r="256"
   id="circle2" />
<path
   style="fill:#1a1a1a"
   d="M388.741,143.1c-14.305,27.281-24.457,56.289-35.357,85.626  c-15.398-17.534-27.851-31.056-27.851-31.056h-42.696l-56.832-56.83l31.923,119.672l-91.57-67.722l-49.145,27.405l142.745,142.745  c-8.945,3.024-18.642,5.491-28.691,8.697L352.711,493.08c90.474-36.945,155.064-124.159,159.07-226.94L388.741,143.1z"
   id="path4" />
<path
   style="fill:#FFFFFF;"
   d="M390.401,144.762c-7.096-7.646-17.368-11.717-30.527-12.104c-37.152-1.2-63.426,18.566-78.091,58.733  c-0.769,2.11-0.3,4.451,1.226,6.106c1.517,1.645,3.796,2.301,5.947,1.71c4.22-1.16,8.401-1.746,12.435-1.746  c5.413,0,12.621,0.995,16.208,5.735c2.75,3.641,3.125,9.097,1.11,16.219c-1.698,6.011-10.449,22.097-21.28,39.117  c-13.195,20.739-20.482,30.036-22.585,30.036c-6.959,0-32.116-111.547-32.809-113.993c-7.213-25.566-10.836-38.398-34.299-38.398  c-17.884,0-57.768,32.658-90.517,61.109c-2.015,1.746-3.71,3.22-5.022,4.346c-3.165,2.707-3.643,7.404-1.088,10.702l6.103,7.859  c2.572,3.313,7.259,4.006,10.68,1.576l0.336-0.241c10.593-7.537,20.604-14.655,28.16-15.048  c8.209-0.402,15.334,12.428,23.828,42.951c16.175,59.289,40.755,129.96,65.977,129.96c26.357,0,57.804-22.344,98.451-75.242  c36.788-47.875,56.489-85.845,57.751-113.473C403.346,169.817,399.31,154.365,390.401,144.762L390.401,144.762z"
   id="path6" />
<path
   style="fill:#D1D1D1;"
   d="M390.401,144.762c-7.096-7.646-17.368-11.717-30.527-12.104c-37.152-1.2-63.426,18.566-78.091,58.733  c-0.769,2.11-0.3,4.451,1.226,6.106c1.517,1.645,3.796,2.301,5.947,1.71c4.22-1.16,8.401-1.746,12.435-1.746  c5.413,0,12.621,0.995,16.208,5.735c2.75,3.641,3.125,9.097,1.11,16.219c-1.698,6.011-10.449,22.097-21.28,39.117  c-13.195,20.739-20.482,30.036-22.585,30.036c-3.587,0-12.007-29.625-19.42-58.675v148.599  c24.426-4.613,53.212-27.479,89.219-74.342c36.788-47.875,56.489-85.845,57.751-113.473  C403.346,169.817,399.31,154.365,390.401,144.762z"
   id="path8" />
</svg>
